<svg xmlns="http://www.w3.org/2000/svg" width="271.043" height="61.021"><g fill="#fff"><path d="M35.069 59.682c-1.658.553-6.225 1.34-11.742 1.34C11.348 61.021 0 54.717 0 35.963v-9.931C0 7.276 11.348 1.053 23.327 1.053c5.517 0 10.084.788 11.742 1.338 1.104.316 1.732.632 1.732 1.73v7.648c0 .948-.472 1.578-1.496 1.578h-.236c-2.993-.237-7.327-.63-11.662-.63-5.439 0-9.773 2.834-9.773 13.315v9.931c0 10.48 4.334 13.316 9.773 13.316 4.335 0 8.669-.395 11.662-.629h.236c1.024 0 1.496.629 1.496 1.578v7.641c0 1.108-.628 1.496-1.732 1.813M55.667 60.311H45.109c-.868 0-1.418-.709-1.418-1.574V3.26c0-.868.55-1.5 1.418-1.5h10.558c.866 0 1.497.632 1.497 1.5v55.477c.001.865-.63 1.574-1.497 1.574M93.92 35.176l-4.807-21.754c-.158-.786-.316-1.18-1.026-1.18-.711 0-.947.394-1.104 1.18l-4.805 21.754-2.206 10.795-2.84 12.924c-.156.787-.786 1.416-1.574 1.416H64.523c-.785 0-1.34-.471-1.34-1.26 0-.074.081-.234.081-.393l11.741-48.86c1.814-7.564 7.644-8.745 13.082-8.745 5.441 0 11.192 1.181 13.004 8.745l11.74 48.86c0 .158.078.318.078.393 0 .789-.55 1.26-1.34 1.26h-11.032c-.787 0-1.419-.629-1.575-1.416l-2.835-12.924zM153.393 11.507h-16c-3.699 0-5.04 1.261-5.04 5.356v7.095h20.411c.866 0 1.573.71 1.573 1.575v7.486c0 .867-.707 1.576-1.573 1.576h-20.411v23.01c0 .869-.711 1.578-1.579 1.578H120.53a1.58 1.58 0 0 1-1.573-1.578V16.863C118.957 2.522 128.02 0 138.179 0c8.518 0 12.455.63 15.214 1.027 1.105.157 1.572.554 1.572 1.576v7.328c0 .865-.703 1.576-1.572 1.576M174.403 59.184h-10.557c-.869 0-1.425-.709-1.425-1.578V2.128c0-.864.556-1.498 1.425-1.498h10.557c.866 0 1.498.634 1.498 1.498v55.478c0 .869-.631 1.578-1.498 1.578M222.795 11.743h-12.763v45.861c0 .869-.713 1.578-1.581 1.578H198.13a1.58 1.58 0 0 1-1.576-1.578V11.743h-12.848c-.863 0-1.575-.629-1.575-1.496V2.128c0-.865.712-1.499 1.575-1.499h39.089c.868 0 1.658.634 1.658 1.499v8.118c0 .867-.79 1.497-1.658 1.497M241.536 7.221c.544.24 1.028.772.993 1.553-.119 2.674-2.361 3.862-5.039 4.091-1.269.108-2.684.011-3.354-.178-.122-.03-.242-.088-.237-.212l.002-.041.323-1.366a.399.399 0 0 1 .353-.289l.03-.003c.942-.025 2.239-.055 3.183-.135 1.146-.098 1.583-.573 1.627-1.56.019-.397-.203-.625-1.023-.554l-2.569.219c-.155.014-.243-.074-.237-.198l.002-.054.36-1.493c.037-.153.197-.276.367-.29l2.569-.219c1.037-.089 1.512-.717 1.551-1.581.017-.384-.286-.468-1.061-.401-1.069.091-2.295.278-3.305.432l-.03.003c-.14.012-.229-.063-.223-.186l.002-.055.323-1.365c.038-.155.211-.237.384-.306.786-.312 2.128-.674 3.396-.782 2.105-.18 3.746.348 3.676 1.925-.057 1.262-.722 2.356-2.063 3.045M252.88 1.826l-.359 1.465c-.038.181-.152.3-.337.316l-.078.007a22.372 22.372 0 0 0-2.731.041c-1.268.109-1.761.424-2.067 1.748l-.018.083a12.047 12.047 0 0 1 1.521-.266c2.028-.174 3.289.579 3.219 2.142-.121 2.715-2.064 4.437-5.128 4.699-2.213.189-3.554-.871-3.472-2.694a5.26 5.26 0 0 1 .115-.829l.626-2.648c.742-3.137 2.704-4.233 5.304-4.455 1.438-.124 2.437-.031 3.141.086.185.025.29.085.283.235-.002.014-.018.043-.019.07m-4.942 5.339a8.614 8.614 0 0 0-1.104.177l-.21.933c-.078.361-.12.597-.13.83-.035.741.283.904.855.855 1.207-.103 1.553-1.265 1.592-2.157.027-.575-.337-.695-1.003-.638M262.069.754l-.416 1.729c-.037.153-.214.278-.384.292l-4.209.36-.517 1.546.634-.054c2.662-.227 3.717.693 3.644 2.311-.006.151-.029.303-.052.455l-.021.139c-.369 2.367-2.179 3.532-5.228 3.792-1.068.091-2.175.022-3.014-.193-.138-.029-.258-.087-.252-.224 0-.014 0-.028.002-.041l.324-1.381c.037-.152.212-.277.368-.29l.03-.003c.709.008 2.145-.033 2.547-.067 1.532-.131 1.886-.448 2.018-1.32l.021-.138c.021-.098.024-.18.026-.248.026-.562-.291-.7-1.422-.603l-2.708.231c-.14.013-.228-.061-.223-.171 0-.014.016-.042.017-.057l1.787-5.465a.46.46 0 0 1 .368-.291l6.407-.547c.154-.013.26.06.253.197a.28.28 0 0 1 0 .041M241.815 17.34l-.285 1.399c-.495 2.454-1.894 3.533-4.642 3.769-1.028.087-2.104.094-2.6.062-.186-.018-.298-.07-.298-.241 0-.032 0-.064.013-.108l1.448-7.174c.05-.25.186-.357.433-.41.521-.119 1.647-.301 2.675-.389 2.055-.176 3.343.664 3.343 2.317 0 .244-.024.503-.087.775m-3.578-1.519a17.38 17.38 0 0 0-.879.097l-1.027 5.069c.173-.005.569-.027.879-.054 1.189-.102 1.907-.548 2.204-2.013l.284-1.401a3.17 3.17 0 0 0 .075-.635c0-.927-.607-1.143-1.536-1.063M246.096 13.901l-1.534 7.641a.326.326 0 0 1-.285.237l-1.659.143c-.111.01-.173-.061-.173-.146v-.053l1.534-7.641a.285.285 0 0 1 .261-.225l1.658-.142c.124-.01.198.048.198.144zM261.979 12.672l-.223 1.096c-.025.119-.111.191-.248.203l-.024.002c-.347.008-1.758.032-2.6.104-.595.051-1.102.18-1.102.777 0 .225.124.32.631.565l1.437.688c.928.443 1.324.975 1.324 1.594 0 1.951-1.771 2.881-3.85 3.059-.979.084-1.733.053-2.34-.034-.112-.012-.198-.07-.198-.165v-.032l.21-1.062c.025-.13.124-.213.261-.226l.037-.004c.494.001 1.845-.028 2.327-.069.693-.06 1.274-.301 1.274-.984 0-.234-.148-.456-.645-.692l-1.521-.734c-.779-.37-1.114-.96-1.114-1.558 0-1.866 1.771-2.562 3.64-2.721.904-.077 2.13-.055 2.575.014.1.013.148.062.148.137v.042zM253.176 14.182c-.074-1.018-.941-1.104-1.795-1.031s-1.808.315-2.303 1.381l-3.194 6.885a.291.291 0 0 0-.024.1c0 .075.062.123.174.113l1.77-.151a.368.368 0 0 0 .285-.216l1.463-3.336-.015.001 1.007-2.263.001-.003.354-.794c.05-.111.1-.168.211-.178.111-.009.123.043.123.149l.149 2.931-.011.001.147 3.199c0 .106.086.185.21.174l1.695-.146c.137-.011.248-.105.248-.233v-.011z"/><path d="M240.128 25.309c-4.268.021-7.907-.662-10.328-1.955-.694-.371-1.289-.791-1.768-1.26-.599-.584-1.02-1.241-1.232-1.97-.584-2.001.49-4.214 2.761-6.31.604-.496 1.553-1.165 2.799-1.911a5.058 5.058 0 0 1 .028-.816c-1.719.929-2.588 1.591-2.966 1.926-3.392 2.678-5.084 5.659-4.287 8.392.18.621.489 1.197.899 1.731.508.662 1.178 1.259 1.995 1.781 2.712 1.736 7.004 2.687 12.059 2.697.475.001.854-.348.837-.761l-.037-.921c-.015-.352-.354-.625-.76-.623M270.848 10.903c-.756-2.593-3.629-4.409-7.736-5.333-.014.231-.023.462-.066.689.21.055.407.108.575.156 2.695.878 4.539 2.259 5.071 4.086 1.411 4.839-6.823 10.915-18.391 13.573a.03.03 0 0 1-.009.002c-.498.115-.999-.178-1.079-.619l-.155-.859c-.108-.604-.946-.86-1.467-.449l-4.497 3.549c-.476.375-.349 1.051.24 1.272l5.516 2.097c.64.243 1.336-.225 1.227-.823l-.17-.947c-.071-.392.212-.767.653-.863.135-.029.268-.06.403-.092 12.623-2.901 21.526-9.813 19.885-15.439"/></g></svg>